<svg xmlns="http://www.w3.org/2000/svg" xmlns:xlink="http://www.w3.org/1999/xlink" width="446" zoomAndPan="magnify" viewBox="0 0 334.5 254.250006" height="339" preserveAspectRatio="xMidYMid meet" version="1.0"><defs><g/><clipPath id="19386b4364"><path d="M 153 91 L 192 91 L 192 154.828125 L 153 154.828125 Z M 153 91 " clip-rule="nonzero"/></clipPath><clipPath id="7de1a7d2ca"><path d="M 106.699219 123 L 129 123 L 129 145 L 106.699219 145 Z M 106.699219 123 " clip-rule="nonzero"/></clipPath><clipPath id="dc82544b43"><path d="M 168 138 L 194 138 L 194 154.828125 L 168 154.828125 Z M 168 138 " clip-rule="nonzero"/></clipPath><clipPath id="d4c7a06feb"><path d="M 137 0.550781 L 213 0.550781 L 213 75 L 137 75 Z M 137 0.550781 " clip-rule="nonzero"/></clipPath></defs><g fill="#acbac7" fill-opacity="1"><g transform="translate(30.148727, 173.725723)"><g><path d="M 34.546875 0 L 32.734375 -22.765625 L 32.5 -22.765625 L 24.625 -0.234375 L 19.421875 -0.234375 L 11.546875 -22.765625 L 11.3125 -22.765625 L 9.5 0 L 0.75 0 L 4.1875 -38.40625 L 13.5 -38.40625 L 22.03125 -16.25 L 30.546875 -38.40625 L 39.859375 -38.40625 L 43.296875 0 Z M 34.546875 0 "/></g></g></g><g fill="#acbac7" fill-opacity="1"><g transform="translate(71.029077, 173.725723)"><g><path d="M 1.078125 -19.234375 C 1.078125 -24.785156 2.96875 -29.484375 6.75 -33.328125 C 10.539062 -37.179688 15.101562 -39.109375 20.4375 -39.109375 C 25.8125 -39.109375 30.375 -37.191406 34.125 -33.359375 C 37.882812 -29.523438 39.765625 -24.816406 39.765625 -19.234375 C 39.765625 -13.609375 37.914062 -8.878906 34.21875 -5.046875 C 30.53125 -1.210938 25.9375 0.703125 20.4375 0.703125 C 14.820312 0.703125 10.191406 -1.195312 6.546875 -5 C 2.898438 -8.800781 1.078125 -13.546875 1.078125 -19.234375 Z M 10.515625 -19.234375 C 10.515625 -17.210938 10.828125 -15.367188 11.453125 -13.703125 C 12.078125 -12.046875 13.164062 -10.644531 14.71875 -9.5 C 16.269531 -8.351562 18.175781 -7.78125 20.4375 -7.78125 C 23.695312 -7.78125 26.15625 -8.894531 27.8125 -11.125 C 29.476562 -13.363281 30.3125 -16.066406 30.3125 -19.234375 C 30.3125 -22.367188 29.460938 -25.0625 27.765625 -27.3125 C 26.078125 -29.5625 23.632812 -30.6875 20.4375 -30.6875 C 17.269531 -30.6875 14.820312 -29.5625 13.09375 -27.3125 C 11.375 -25.0625 10.515625 -22.367188 10.515625 -19.234375 Z M 10.515625 -19.234375 "/></g></g></g><g fill="#acbac7" fill-opacity="1"><g transform="translate(108.696704, 173.725723)"><g><path d="M 11.546875 -23.84375 L 11.546875 0 L 2.796875 0 L 2.796875 -38.40625 L 11.546875 -38.40625 L 26.8125 -14.578125 L 26.90625 -14.578125 L 26.90625 -38.40625 L 35.671875 -38.40625 L 35.671875 0 L 26.90625 0 L 11.640625 -23.84375 Z M 11.546875 -23.84375 "/></g></g></g><g fill="#acbac7" fill-opacity="1"><g transform="translate(143.989695, 173.725723)"><g><path d="M 1.078125 -19.234375 C 1.078125 -24.785156 2.96875 -29.484375 6.75 -33.328125 C 10.539062 -37.179688 15.101562 -39.109375 20.4375 -39.109375 C 25.8125 -39.109375 30.375 -37.191406 34.125 -33.359375 C 37.882812 -29.523438 39.765625 -24.816406 39.765625 -19.234375 C 39.765625 -13.609375 37.914062 -8.878906 34.21875 -5.046875 C 30.53125 -1.210938 25.9375 0.703125 20.4375 0.703125 C 14.820312 0.703125 10.191406 -1.195312 6.546875 -5 C 2.898438 -8.800781 1.078125 -13.546875 1.078125 -19.234375 Z M 10.515625 -19.234375 C 10.515625 -17.210938 10.828125 -15.367188 11.453125 -13.703125 C 12.078125 -12.046875 13.164062 -10.644531 14.71875 -9.5 C 16.269531 -8.351562 18.175781 -7.78125 20.4375 -7.78125 C 23.695312 -7.78125 26.15625 -8.894531 27.8125 -11.125 C 29.476562 -13.363281 30.3125 -16.066406 30.3125 -19.234375 C 30.3125 -22.367188 29.460938 -25.0625 27.765625 -27.3125 C 26.078125 -29.5625 23.632812 -30.6875 20.4375 -30.6875 C 17.269531 -30.6875 14.820312 -29.5625 13.09375 -27.3125 C 11.375 -25.0625 10.515625 -22.367188 10.515625 -19.234375 Z M 10.515625 -19.234375 "/></g></g></g><g fill="#acbac7" fill-opacity="1"><g transform="translate(181.657325, 173.725723)"><g><path d="M 2.796875 -38.40625 L 16.53125 -38.40625 C 20.226562 -38.40625 23.238281 -37.421875 25.5625 -35.453125 C 27.894531 -33.484375 29.0625 -30.664062 29.0625 -27 C 29.0625 -24.175781 28.351562 -21.8125 26.9375 -19.90625 C 25.519531 -18 23.601562 -16.65625 21.1875 -15.875 L 34.40625 0 L 23.28125 0 L 11.546875 -15.171875 L 11.546875 0 L 2.796875 0 Z M 11.546875 -21.375 L 12.578125 -21.375 C 13.378906 -21.375 14.054688 -21.390625 14.609375 -21.421875 C 15.171875 -21.453125 15.804688 -21.5625 16.515625 -21.75 C 17.234375 -21.9375 17.8125 -22.195312 18.25 -22.53125 C 18.6875 -22.875 19.054688 -23.367188 19.359375 -24.015625 C 19.671875 -24.671875 19.828125 -25.460938 19.828125 -26.390625 C 19.828125 -27.328125 19.671875 -28.117188 19.359375 -28.765625 C 19.054688 -29.421875 18.6875 -29.921875 18.25 -30.265625 C 17.8125 -30.609375 17.234375 -30.875 16.515625 -31.0625 C 15.804688 -31.25 15.171875 -31.351562 14.609375 -31.375 C 14.054688 -31.40625 13.378906 -31.421875 12.578125 -31.421875 L 11.546875 -31.421875 Z M 11.546875 -21.375 "/></g></g></g><g fill="#acbac7" fill-opacity="1"><g transform="translate(211.828579, 173.725723)"><g><path d="M 24.765625 -38.40625 L 24.765625 -30.734375 L 11.546875 -30.734375 L 11.546875 -23.09375 L 24.21875 -23.09375 L 24.21875 -15.40625 L 11.546875 -15.40625 L 11.546875 -7.6875 L 24.765625 -7.6875 L 24.765625 0 L 2.796875 0 L 2.796875 -38.40625 Z M 24.765625 -38.40625 "/></g></g></g><g fill="#acbac7" fill-opacity="1"><g transform="translate(235.667485, 173.725723)"><g><path d="M 2.796875 -38.40625 L 16.8125 -38.40625 C 20.71875 -38.40625 23.878906 -37.394531 26.296875 -35.375 C 28.722656 -33.363281 29.9375 -30.429688 29.9375 -26.578125 C 29.9375 -22.734375 28.707031 -19.71875 26.25 -17.53125 C 23.800781 -15.34375 20.65625 -14.25 16.8125 -14.25 L 11.546875 -14.25 L 11.546875 0 L 2.796875 0 Z M 11.546875 -21.234375 L 14.015625 -21.234375 C 15.972656 -21.234375 17.578125 -21.628906 18.828125 -22.421875 C 20.085938 -23.210938 20.71875 -24.507812 20.71875 -26.3125 C 20.71875 -28.144531 20.085938 -29.453125 18.828125 -30.234375 C 17.578125 -31.023438 15.972656 -31.421875 14.015625 -31.421875 L 11.546875 -31.421875 Z M 11.546875 -21.234375 "/></g></g></g><g fill="#acbac7" fill-opacity="1"><g transform="translate(263.510674, 173.725723)"><g><path d="M 1.078125 -19.234375 C 1.078125 -24.785156 2.96875 -29.484375 6.75 -33.328125 C 10.539062 -37.179688 15.101562 -39.109375 20.4375 -39.109375 C 25.8125 -39.109375 30.375 -37.191406 34.125 -33.359375 C 37.882812 -29.523438 39.765625 -24.816406 39.765625 -19.234375 C 39.765625 -13.609375 37.914062 -8.878906 34.21875 -5.046875 C 30.53125 -1.210938 25.9375 0.703125 20.4375 0.703125 C 14.820312 0.703125 10.191406 -1.195312 6.546875 -5 C 2.898438 -8.800781 1.078125 -13.546875 1.078125 -19.234375 Z M 10.515625 -19.234375 C 10.515625 -17.210938 10.828125 -15.367188 11.453125 -13.703125 C 12.078125 -12.046875 13.164062 -10.644531 14.71875 -9.5 C 16.269531 -8.351562 18.175781 -7.78125 20.4375 -7.78125 C 23.695312 -7.78125 26.15625 -8.894531 27.8125 -11.125 C 29.476562 -13.363281 30.3125 -16.066406 30.3125 -19.234375 C 30.3125 -22.367188 29.460938 -25.0625 27.765625 -27.3125 C 26.078125 -29.5625 23.632812 -30.6875 20.4375 -30.6875 C 17.269531 -30.6875 14.820312 -29.5625 13.09375 -27.3125 C 11.375 -25.0625 10.515625 -22.367188 10.515625 -19.234375 Z M 10.515625 -19.234375 "/></g></g></g><g fill="#acbac7" fill-opacity="1"><g transform="translate(76.384241, 227.702238)"><g><path d="M 15.878906 -35.605469 C 9.457031 -35.605469 4.25 -31.8125 4.25 -25.792969 C 4.25 -20.027344 8.546875 -17.550781 14.71875 -16.132812 C 20.835938 -14.71875 23.265625 -12.796875 23.265625 -8.546875 C 23.265625 -4.90625 20.027344 -2.730469 16.03125 -2.730469 C 11.480469 -2.730469 8.292969 -5.308594 7.28125 -9.914062 L 2.628906 -9.914062 C 3.386719 -3.1875 8.242188 0.707031 15.929688 0.707031 C 22.65625 0.707031 27.917969 -3.238281 27.917969 -9.355469 C 27.917969 -15.273438 24.074219 -18.410156 16.386719 -20.179688 C 11.074219 -21.394531 8.902344 -23.011719 8.902344 -26.804688 C 8.902344 -30.445312 11.835938 -32.164062 15.527344 -32.164062 C 19.925781 -32.164062 22.503906 -29.636719 22.910156 -25.238281 L 27.5625 -25.238281 C 26.90625 -31.203125 23.113281 -35.605469 15.878906 -35.605469 Z M 15.878906 -35.605469 "/></g></g></g><g fill="#acbac7" fill-opacity="1"><g transform="translate(108.745396, 227.702238)"><g><path d="M 28.269531 -3.539062 L 9.40625 -3.539062 L 9.40625 -15.679688 L 26.246094 -15.679688 L 26.246094 -19.21875 L 9.40625 -19.21875 L 9.40625 -31.355469 L 27.765625 -31.355469 L 27.765625 -34.894531 L 5.058594 -34.894531 L 5.058594 0 L 28.269531 0 Z M 28.269531 -3.539062 "/></g></g></g><g fill="#acbac7" fill-opacity="1"><g transform="translate(141.207685, 227.702238)"><g><path d="M 30.953125 -31.355469 L 30.953125 -34.894531 L 1.71875 -34.894531 L 1.71875 -31.355469 L 14.160156 -31.355469 L 14.160156 0 L 18.511719 0 L 18.511719 -31.355469 Z M 30.953125 -31.355469 "/></g></g></g><g fill="#acbac7" fill-opacity="1"><g transform="translate(174.934054, 227.702238)"><g><path d="M 30.953125 -34.894531 L 26.601562 -34.894531 L 26.601562 -13.300781 C 26.601562 -12.1875 26.601562 -11.125 26.5 -10.214844 C 26.097656 -5.816406 23.214844 -2.730469 17.851562 -2.730469 C 12.492188 -2.730469 9.609375 -5.816406 9.203125 -10.214844 C 9.101562 -11.125 9.101562 -12.1875 9.101562 -13.300781 L 9.101562 -34.894531 L 4.753906 -34.894531 L 4.753906 -12.894531 C 4.753906 -11.785156 4.753906 -10.773438 4.855469 -9.761719 C 5.359375 -3.945312 9.304688 0.707031 17.851562 0.707031 C 26.398438 0.707031 30.34375 -3.945312 30.851562 -9.761719 C 30.953125 -10.773438 30.953125 -11.785156 30.953125 -12.894531 Z M 30.953125 -34.894531 "/></g></g></g><g fill="#acbac7" fill-opacity="1"><g transform="translate(212.199848, 227.702238)"><g><path d="M 20.433594 -34.695312 C 18.863281 -34.894531 17.648438 -34.894531 15.878906 -34.894531 L 5.058594 -34.894531 L 5.058594 0 L 9.40625 0 L 9.40625 -14.261719 L 15.878906 -14.261719 C 17.648438 -14.261719 18.863281 -14.261719 20.433594 -14.464844 C 25.488281 -15.121094 29.484375 -18.660156 29.484375 -24.578125 C 29.484375 -30.496094 25.996094 -33.984375 20.433594 -34.695312 Z M 20.179688 -18.15625 C 19.21875 -17.953125 17.851562 -17.902344 16.285156 -17.902344 L 9.40625 -17.902344 L 9.40625 -31.253906 L 16.285156 -31.253906 C 17.851562 -31.253906 19.21875 -31.203125 20.179688 -31 C 22.65625 -30.445312 24.832031 -28.625 24.832031 -24.578125 C 24.832031 -20.53125 22.65625 -18.710938 20.179688 -18.15625 Z M 20.179688 -18.15625 "/></g></g></g><path fill="#acbac7" d="M 224.195312 72.859375 C 223.785156 74.03125 223.050781 75.15625 222.03125 76.136719 C 218.746094 79.296875 196 83.402344 187.453125 84.855469 C 185.441406 85.195312 184.214844 85.390625 184.214844 85.390625 L 177.769531 76.253906 C 177.769531 76.253906 211.410156 62.207031 218.5 64.09375 C 223.8125 65.507812 225.429688 69.371094 224.195312 72.859375 Z M 224.195312 72.859375 " fill-opacity="1" fill-rule="nonzero"/><path fill="#acbac7" d="M 224.195312 72.859375 C 223.785156 74.03125 223.050781 75.15625 222.03125 76.136719 C 218.746094 79.296875 196 83.402344 187.453125 84.855469 C 187.308594 82.523438 187.09375 79.832031 187.09375 79.832031 C 187.09375 79.832031 214.597656 76.433594 220.730469 73.429688 C 221.75 72.929688 222.949219 72.765625 224.195312 72.859375 Z M 224.195312 72.859375 " fill-opacity="1" fill-rule="nonzero"/><path fill="#2b2b2b" d="M 178.179688 76.371094 C 180.367188 79.3125 182.484375 82.183594 184.5625 85.144531 L 184.144531 84.96875 L 184.148438 84.96875 C 188.09375 83.910156 192.097656 83.1875 196.09375 82.445312 C 200.09375 81.695312 204.078125 80.898438 208.035156 79.992188 C 210.011719 79.539062 211.980469 79.058594 213.929688 78.519531 C 215.871094 77.980469 217.8125 77.398438 219.613281 76.628906 C 219.84375 76.539062 220.050781 76.425781 220.265625 76.324219 C 220.371094 76.269531 220.484375 76.21875 220.585938 76.164062 L 220.875 75.988281 C 220.96875 75.929688 221.082031 75.878906 221.15625 75.8125 L 221.386719 75.628906 C 221.464844 75.582031 221.546875 75.492188 221.628906 75.410156 C 221.710938 75.324219 221.796875 75.246094 221.871094 75.15625 C 222.5 74.46875 223.019531 73.6875 223.355469 72.839844 C 223.699219 71.996094 223.84375 71.089844 223.78125 70.207031 C 223.714844 69.324219 223.398438 68.480469 222.90625 67.742188 C 222.40625 67.007812 221.710938 66.390625 220.921875 65.90625 C 220.121094 65.425781 219.234375 65.066406 218.304688 64.8125 C 217.910156 64.707031 217.445312 64.664062 216.972656 64.660156 C 216.5 64.652344 216.011719 64.671875 215.523438 64.71875 C 214.546875 64.804688 213.558594 64.964844 212.574219 65.148438 C 210.605469 65.527344 208.640625 66.023438 206.6875 66.5625 C 204.738281 67.105469 202.796875 67.699219 200.863281 68.316406 C 196.996094 69.558594 193.152344 70.890625 189.332031 72.289062 C 187.421875 72.988281 185.515625 73.703125 183.617188 74.433594 L 180.769531 75.53125 L 179.347656 76.085938 L 178.636719 76.367188 L 178.109375 76.578125 L 178.019531 76.613281 L 177.976562 76.632812 C 177.980469 76.628906 177.929688 76.652344 177.984375 76.628906 C 178.078125 76.582031 178.164062 76.464844 178.179688 76.371094 Z M 177.355469 76.136719 C 177.386719 76.035156 177.488281 75.914062 177.59375 75.863281 L 177.648438 75.839844 L 177.691406 75.820312 L 177.78125 75.785156 L 177.957031 75.710938 L 178.308594 75.558594 L 179.011719 75.261719 L 180.421875 74.671875 L 183.253906 73.507812 C 185.144531 72.746094 187.042969 71.996094 188.945312 71.261719 C 192.753906 69.796875 196.582031 68.378906 200.460938 67.085938 C 202.398438 66.441406 204.347656 65.824219 206.316406 65.253906 C 208.289062 64.6875 210.273438 64.160156 212.300781 63.753906 C 213.316406 63.550781 214.335938 63.371094 215.390625 63.269531 C 215.914062 63.214844 216.449219 63.1875 216.992188 63.1875 C 217.539062 63.1875 218.097656 63.226562 218.6875 63.375 C 219.730469 63.648438 220.753906 64.042969 221.707031 64.601562 C 222.65625 65.167969 223.53125 65.917969 224.191406 66.863281 C 224.839844 67.804688 225.261719 68.929688 225.347656 70.078125 C 225.4375 71.226562 225.25 72.382812 224.828125 73.421875 C 224.414062 74.472656 223.792969 75.414062 223.050781 76.230469 C 222.964844 76.339844 222.863281 76.433594 222.765625 76.53125 C 222.671875 76.628906 222.578125 76.726562 222.449219 76.828125 L 222.082031 77.117188 C 221.960938 77.214844 221.839844 77.273438 221.71875 77.351562 L 221.355469 77.570312 C 221.234375 77.636719 221.109375 77.691406 220.992188 77.753906 C 220.746094 77.871094 220.503906 78 220.261719 78.097656 C 218.3125 78.933594 216.34375 79.527344 214.367188 80.085938 C 212.386719 80.640625 210.398438 81.132812 208.40625 81.597656 C 204.421875 82.523438 200.417969 83.339844 196.410156 84.109375 C 192.402344 84.878906 188.378906 85.570312 184.28125 85.8125 L 184.015625 85.855469 L 183.863281 85.636719 C 181.644531 82.503906 179.46875 79.285156 177.355469 76.136719 Z M 177.355469 76.136719 " fill-opacity="1" fill-rule="nonzero"/><path fill="#acbac7" d="M 223.789062 76.085938 C 218.84375 81.253906 212.953125 78.335938 212.953125 78.335938 L 212.390625 77.832031 C 211.902344 77.398438 211.441406 76.945312 211.011719 76.472656 C 208.214844 73.402344 206.628906 69.578125 206.546875 65.632812 C 206.546875 65.632812 212.210938 60.722656 218.789062 61.300781 C 219.746094 61.382812 220.636719 61.644531 221.441406 62.050781 C 226.171875 64.417969 228.015625 71.664062 223.789062 76.085938 Z M 223.789062 76.085938 " fill-opacity="1" fill-rule="nonzero"/><path fill="#acbac7" d="M 223.789062 76.085938 C 218.84375 81.253906 212.953125 78.335938 212.953125 78.335938 L 212.390625 77.832031 C 211.902344 77.398438 211.441406 76.945312 211.011719 76.472656 L 211.210938 76.046875 C 211.210938 76.046875 215.503906 76.984375 219.90625 74.480469 C 223.527344 72.425781 223.050781 65.976562 221.441406 62.050781 C 226.171875 64.417969 228.015625 71.664062 223.789062 76.085938 Z M 223.789062 76.085938 " fill-opacity="1" fill-rule="nonzero"/><path fill="#2b2b2b" d="M 206.824219 65.953125 C 207.121094 65.292969 206.90625 65.773438 206.972656 65.625 L 206.972656 65.636719 L 206.976562 65.652344 L 206.976562 65.734375 L 206.984375 65.84375 L 206.996094 66.066406 C 207.003906 66.214844 207.007812 66.367188 207.019531 66.511719 C 207.054688 66.808594 207.074219 67.105469 207.117188 67.398438 C 207.203125 67.988281 207.316406 68.574219 207.46875 69.148438 C 207.765625 70.300781 208.199219 71.417969 208.746094 72.476562 C 209.292969 73.535156 209.953125 74.535156 210.707031 75.457031 C 211.085938 75.921875 211.488281 76.363281 211.910156 76.789062 C 212.332031 77.207031 212.777344 77.605469 213.238281 78.015625 L 213.144531 77.953125 C 213.53125 78.078125 213.972656 78.191406 214.398438 78.273438 C 214.832031 78.355469 215.261719 78.410156 215.695312 78.449219 C 216.558594 78.515625 217.421875 78.46875 218.257812 78.324219 C 219.097656 78.1875 219.890625 77.878906 220.660156 77.523438 L 221.210938 77.207031 L 221.488281 77.050781 L 221.75 76.859375 L 222.265625 76.480469 C 222.355469 76.421875 222.433594 76.347656 222.511719 76.273438 L 222.746094 76.054688 C 224.0625 74.933594 224.925781 73.414062 225.269531 71.753906 C 225.621094 70.097656 225.414062 68.324219 224.773438 66.742188 C 224.117188 65.171875 223.03125 63.746094 221.578125 62.878906 C 220.859375 62.441406 220.0625 62.128906 219.230469 61.988281 C 219.019531 61.96875 218.820312 61.917969 218.597656 61.914062 L 217.613281 61.867188 C 217.503906 61.863281 217.394531 61.875 217.28125 61.878906 L 216.621094 61.90625 C 213.101562 62.191406 209.660156 63.792969 206.824219 65.953125 Z M 206.265625 65.308594 C 207.722656 64.066406 209.316406 63.074219 211.035156 62.265625 C 211.46875 62.070312 211.898438 61.875 212.347656 61.714844 C 212.789062 61.535156 213.246094 61.398438 213.699219 61.257812 C 213.925781 61.179688 214.160156 61.128906 214.390625 61.070312 L 215.089844 60.90625 L 215.804688 60.796875 C 216.042969 60.765625 216.277344 60.714844 216.519531 60.707031 L 217.242188 60.660156 C 217.363281 60.652344 217.480469 60.640625 217.601562 60.640625 L 217.964844 60.648438 L 218.691406 60.671875 C 218.933594 60.671875 219.1875 60.722656 219.433594 60.746094 C 220.425781 60.894531 221.386719 61.25 222.253906 61.75 C 223.121094 62.253906 223.890625 62.914062 224.527344 63.675781 C 225.167969 64.4375 225.691406 65.292969 226.066406 66.207031 C 226.820312 68.03125 227.074219 70.078125 226.675781 72.039062 C 226.480469 73.015625 226.128906 73.96875 225.628906 74.835938 C 225.132812 75.703125 224.476562 76.496094 223.742188 77.132812 L 223.472656 77.386719 C 223.386719 77.472656 223.296875 77.554688 223.191406 77.625 L 222.597656 78.070312 L 222.300781 78.289062 L 221.328125 78.851562 C 221.105469 78.960938 220.875 79.054688 220.644531 79.152344 L 220.300781 79.296875 C 220.183594 79.339844 220.058594 79.371094 219.941406 79.40625 C 219.703125 79.476562 219.460938 79.550781 219.222656 79.613281 L 218.484375 79.742188 C 217.496094 79.875 216.496094 79.855469 215.53125 79.683594 C 215.046875 79.59375 214.574219 79.476562 214.113281 79.316406 C 213.648438 79.164062 213.214844 78.972656 212.761719 78.714844 L 212.699219 78.679688 L 212.667969 78.652344 C 212.214844 78.25 211.75 77.828125 211.304688 77.390625 C 210.863281 76.945312 210.441406 76.484375 210.042969 75.996094 C 209.253906 75.027344 208.558594 73.976562 207.984375 72.863281 C 207.40625 71.75 206.953125 70.574219 206.636719 69.359375 C 206.476562 68.753906 206.359375 68.136719 206.269531 67.515625 C 206.222656 67.203125 206.199219 66.890625 206.167969 66.578125 C 206.152344 66.421875 206.148438 66.265625 206.140625 66.109375 L 206.128906 65.875 L 206.121094 65.753906 L 206.121094 65.667969 L 206.117188 65.652344 L 206.117188 65.640625 C 206.183594 65.496094 205.972656 65.972656 206.265625 65.308594 Z M 206.265625 65.308594 " fill-opacity="1" fill-rule="nonzero"/><path fill="#acbac7" d="M 156.40625 70.050781 L 149.6875 74.171875 L 146.871094 75.902344 C 146.871094 75.902344 129.996094 65.261719 121.0625 57.929688 C 118.300781 55.664062 116.296875 53.710938 115.78125 52.488281 C 113.59375 47.292969 116.527344 41.75 123.789062 42.8125 C 131.046875 43.878906 156.40625 70.050781 156.40625 70.050781 Z M 156.40625 70.050781 " fill-opacity="1" fill-rule="nonzero"/><path fill="#acbac7" d="M 149.6875 74.171875 L 146.871094 75.902344 C 146.871094 75.902344 129.996094 65.261719 121.0625 57.929688 L 126.054688 57.007812 C 126.054688 57.007812 141.882812 69.070312 149.6875 74.171875 Z M 149.6875 74.171875 " fill-opacity="1" fill-rule="nonzero"/><path fill="#2b2b2b" d="M 156.828125 70.101562 C 153.644531 72.164062 150.371094 74.261719 147.097656 76.265625 L 146.867188 76.402344 L 146.644531 76.261719 C 143.171875 74.117188 139.746094 71.90625 136.34375 69.65625 C 132.941406 67.410156 129.574219 65.105469 126.265625 62.707031 C 124.613281 61.507812 122.976562 60.28125 121.371094 59.003906 C 119.765625 57.726562 118.1875 56.417969 116.726562 54.898438 C 116.542969 54.714844 116.371094 54.503906 116.195312 54.304688 C 116.105469 54.199219 116.019531 54.101562 115.933594 53.996094 L 115.6875 53.65625 C 115.605469 53.539062 115.519531 53.441406 115.445312 53.308594 L 115.226562 52.90625 C 115.148438 52.769531 115.105469 52.644531 115.054688 52.519531 C 115.007812 52.390625 114.949219 52.265625 114.910156 52.136719 C 114.554688 51.105469 114.351562 50.003906 114.386719 48.894531 C 114.40625 47.78125 114.679688 46.660156 115.207031 45.652344 C 115.734375 44.644531 116.550781 43.785156 117.503906 43.175781 C 118.46875 42.570312 119.558594 42.222656 120.648438 42.070312 C 121.742188 41.925781 122.832031 41.960938 123.894531 42.109375 C 124.496094 42.203125 125.019531 42.386719 125.523438 42.59375 C 126.023438 42.804688 126.503906 43.039062 126.964844 43.292969 C 127.894531 43.792969 128.765625 44.359375 129.625 44.9375 C 133.03125 47.277344 136.160156 49.917969 139.222656 52.628906 C 142.28125 55.339844 145.265625 58.128906 148.167969 60.996094 C 149.617188 62.425781 151.070312 63.859375 152.492188 65.324219 L 154.617188 67.523438 L 155.667969 68.632812 L 156.191406 69.191406 L 156.453125 69.472656 L 156.582031 69.609375 L 156.648438 69.683594 L 156.679688 69.71875 L 156.71875 69.761719 C 156.796875 69.847656 156.839844 70 156.828125 70.101562 Z M 155.980469 69.996094 C 155.957031 70.089844 155.988281 70.230469 156.058594 70.304688 C 156.097656 70.347656 156.058594 70.308594 156.0625 70.3125 L 156.027344 70.28125 L 155.960938 70.214844 L 153.910156 68.222656 L 151.710938 66.109375 C 150.234375 64.710938 148.773438 63.296875 147.285156 61.90625 C 144.3125 59.136719 141.332031 56.371094 138.277344 53.699219 C 136.75 52.363281 135.199219 51.058594 133.628906 49.78125 C 132.058594 48.503906 130.460938 47.265625 128.808594 46.128906 C 127.980469 45.566406 127.140625 45.019531 126.277344 44.550781 C 125.847656 44.3125 125.410156 44.101562 124.972656 43.914062 C 124.539062 43.730469 124.09375 43.582031 123.683594 43.519531 C 122.730469 43.378906 121.769531 43.351562 120.839844 43.46875 C 119.910156 43.597656 119.019531 43.886719 118.253906 44.363281 C 117.496094 44.847656 116.859375 45.507812 116.4375 46.308594 C 116.019531 47.101562 115.789062 48.007812 115.769531 48.929688 C 115.738281 49.855469 115.90625 50.792969 116.210938 51.683594 C 116.242188 51.796875 116.292969 51.90625 116.335938 52.015625 C 116.375 52.125 116.417969 52.242188 116.472656 52.324219 L 116.617188 52.59375 C 116.660156 52.6875 116.742188 52.78125 116.804688 52.875 L 117.003906 53.15625 C 117.078125 53.25 117.160156 53.339844 117.238281 53.429688 C 117.394531 53.613281 117.539062 53.800781 117.714844 53.976562 C 119.066406 55.410156 120.613281 56.726562 122.179688 58 C 123.75 59.273438 125.363281 60.507812 126.992188 61.714844 C 133.539062 66.527344 140.289062 71.09375 147.101562 75.539062 L 146.648438 75.535156 C 149.726562 73.636719 152.808594 71.835938 155.980469 69.996094 Z M 155.980469 69.996094 " fill-opacity="1" fill-rule="nonzero"/><path fill="#acbac7" d="M 134.164062 48.941406 C 132.570312 52.445312 129.707031 55.277344 126.058594 57.007812 C 125.386719 57.328125 124.691406 57.605469 123.96875 57.847656 L 123.253906 58.085938 C 123.253906 58.085938 116.6875 58.449219 114.1875 51.742188 C 112.910156 48.308594 114.035156 44.800781 116.28125 42.472656 C 118.417969 40.265625 121.570312 39.125 124.628906 40.132812 C 130.894531 42.195312 134.164062 48.941406 134.164062 48.941406 Z M 134.164062 48.941406 " fill-opacity="1" fill-rule="nonzero"/><path fill="#acbac7" d="M 127.054688 56.285156 L 126.058594 57.007812 C 125.386719 57.328125 124.691406 57.605469 123.96875 57.847656 L 123.253906 58.085938 C 123.253906 58.085938 116.6875 58.445312 114.1875 51.742188 C 112.910156 48.304688 114.035156 44.800781 116.28125 42.472656 C 115.761719 45.421875 114.703125 56.171875 127.054688 56.285156 Z M 127.054688 56.285156 " fill-opacity="1" fill-rule="nonzero"/><path fill="#2b2b2b" d="M 122.34375 40.195312 C 120.28125 40.195312 118.199219 41.101562 116.578125 42.785156 C 114.234375 45.21875 113.46875 48.59375 114.589844 51.59375 C 116.851562 57.667969 122.511719 57.679688 123.175781 57.660156 L 123.832031 57.441406 C 128.257812 55.964844 131.835938 52.875 133.6875 48.949219 C 133.121094 47.886719 129.953125 42.335938 124.492188 40.535156 C 123.792969 40.308594 123.070312 40.195312 122.34375 40.195312 Z M 123.128906 58.515625 C 122.101562 58.515625 116.152344 58.234375 113.789062 51.890625 C 112.554688 48.582031 113.386719 44.863281 115.964844 42.191406 C 118.382812 39.679688 121.753906 38.734375 124.761719 39.726562 C 131.132812 41.824219 134.410156 48.472656 134.546875 48.753906 L 134.636719 48.933594 L 134.554688 49.117188 C 132.632812 53.347656 128.824219 56.675781 124.105469 58.253906 L 123.335938 58.511719 L 123.277344 58.511719 C 123.273438 58.515625 123.21875 58.515625 123.128906 58.515625 Z M 123.128906 58.515625 " fill-opacity="1" fill-rule="nonzero"/><path fill="#acbac7" d="M 185.972656 151.347656 L 175.96875 153.183594 C 174.996094 153.363281 174.03125 153.296875 173.152344 153.023438 C 171.359375 152.472656 169.898438 151.085938 169.359375 149.222656 C 169.339844 149.15625 169.316406 149.09375 169.304688 149.027344 L 163.550781 126.050781 C 162.925781 123.550781 153.808594 115.203125 153.707031 111.328125 L 154.261719 111.226562 L 159.597656 110.246094 L 157.066406 100.128906 C 156.261719 96.910156 158.484375 93.683594 161.863281 93.164062 L 166.128906 92.507812 C 168.859375 92.089844 171.496094 93.589844 172.4375 96.097656 L 189.644531 141.78125 L 190.410156 143.8125 C 191.652344 147.09375 189.527344 150.695312 185.972656 151.347656 Z M 185.972656 151.347656 " fill-opacity="1" fill-rule="nonzero"/><path fill="#acbac7" d="M 175.335938 142.957031 L 173.152344 153.023438 C 171.359375 152.472656 169.898438 151.085938 169.359375 149.222656 C 169.339844 149.15625 169.316406 149.09375 169.304688 149.027344 L 163.550781 126.050781 C 162.925781 123.550781 153.808594 115.203125 153.707031 111.328125 L 154.261719 111.226562 L 165.5625 117 Z M 175.335938 142.957031 " fill-opacity="1" fill-rule="nonzero"/><g clip-path="url(#19386b4364)"><path fill="#2b2b2b" d="M 191.242188 143.5 C 191.539062 144.296875 191.683594 145.148438 191.652344 146.003906 C 191.621094 146.855469 191.417969 147.699219 191.0625 148.472656 C 190.359375 150.023438 189.019531 151.253906 187.449219 151.886719 C 187.246094 151.960938 187.050781 152.035156 186.847656 152.101562 L 186.234375 152.25 C 185.847656 152.332031 185.507812 152.390625 185.140625 152.460938 L 182.976562 152.875 L 178.65625 153.691406 L 176.492188 154.101562 C 176.3125 154.136719 176.144531 154.171875 175.917969 154.203125 C 175.707031 154.230469 175.496094 154.265625 175.28125 154.269531 C 175.066406 154.28125 174.851562 154.296875 174.636719 154.28125 C 174.421875 154.273438 174.207031 154.265625 173.996094 154.230469 C 172.289062 154.027344 170.664062 153.152344 169.570312 151.800781 C 169.429688 151.636719 169.308594 151.449219 169.183594 151.273438 C 169.0625 151.09375 168.960938 150.902344 168.851562 150.714844 C 168.753906 150.519531 168.664062 150.320312 168.574219 150.121094 L 168.367188 149.519531 C 168.292969 149.265625 168.257812 149.109375 168.210938 148.929688 L 168.074219 148.394531 L 167.804688 147.332031 L 166.730469 143.070312 L 164.625 134.539062 L 162.574219 126.132812 C 162.484375 125.90625 162.3125 125.605469 162.140625 125.328125 C 161.957031 125.042969 161.761719 124.753906 161.550781 124.46875 C 161.136719 123.894531 160.691406 123.324219 160.238281 122.753906 C 159.339844 121.613281 158.414062 120.46875 157.511719 119.300781 C 156.617188 118.125 155.726562 116.933594 154.945312 115.652344 C 154.550781 115.011719 154.179688 114.355469 153.863281 113.652344 C 153.554688 112.949219 153.292969 112.191406 153.28125 111.339844 L 153.28125 111.335938 L 153.25 110.976562 L 153.632812 110.90625 L 159.519531 109.824219 L 159.179688 110.351562 L 156.59375 100.289062 C 156.351562 99.386719 156.332031 98.410156 156.539062 97.488281 C 156.738281 96.5625 157.160156 95.691406 157.746094 94.953125 C 158.332031 94.210938 159.089844 93.601562 159.941406 93.191406 C 160.367188 92.988281 160.816406 92.824219 161.273438 92.71875 C 161.75 92.605469 162.167969 92.550781 162.597656 92.476562 L 165.164062 92.070312 C 165.597656 92.003906 165.996094 91.925781 166.488281 91.878906 C 166.722656 91.855469 166.960938 91.855469 167.199219 91.851562 C 167.4375 91.867188 167.675781 91.867188 167.910156 91.90625 C 169.808594 92.132812 171.578125 93.273438 172.5625 94.933594 C 172.675781 95.144531 172.804688 95.351562 172.890625 95.574219 L 173.03125 95.902344 L 173.148438 96.207031 L 173.609375 97.417969 L 174.539062 99.84375 L 176.394531 104.695312 Z M 189.585938 144.121094 L 175.140625 105.167969 L 172.433594 97.867188 L 171.867188 96.34375 L 171.757812 96.074219 C 171.6875 95.894531 171.585938 95.730469 171.5 95.558594 C 170.730469 94.226562 169.308594 93.277344 167.757812 93.078125 C 167.566406 93.042969 167.367188 93.042969 167.175781 93.027344 C 166.980469 93.027344 166.785156 93.023438 166.589844 93.042969 C 166.21875 93.074219 165.765625 93.152344 165.339844 93.210938 L 162.769531 93.59375 C 162.34375 93.65625 161.898438 93.714844 161.53125 93.796875 C 161.144531 93.882812 160.773438 94.015625 160.417969 94.179688 C 159.703125 94.507812 159.066406 95.007812 158.574219 95.617188 C 157.574219 96.835938 157.15625 98.507812 157.558594 100.050781 L 160.011719 110.144531 L 160.121094 110.589844 L 159.675781 110.667969 L 159.671875 110.667969 L 153.785156 111.75 L 154.136719 111.316406 C 154.210938 111.933594 154.496094 112.570312 154.824219 113.179688 C 155.160156 113.792969 155.5625 114.382812 155.984375 114.957031 C 156.839844 116.109375 157.761719 117.226562 158.71875 118.324219 L 161.601562 121.640625 C 162.082031 122.203125 162.558594 122.769531 163.023438 123.371094 C 163.257812 123.667969 163.488281 123.976562 163.710938 124.300781 C 163.929688 124.640625 164.152344 124.964844 164.34375 125.414062 C 164.390625 125.53125 164.433594 125.667969 164.472656 125.792969 L 164.546875 126.066406 L 164.6875 126.601562 L 165.519531 129.789062 L 166.605469 134.054688 L 168.773438 142.574219 L 169.832031 146.84375 L 170.347656 148.917969 C 170.519531 149.523438 170.792969 150.035156 171.171875 150.507812 C 171.921875 151.4375 173.054688 152.066406 174.257812 152.226562 C 174.40625 152.253906 174.558594 152.257812 174.710938 152.265625 C 174.863281 152.28125 175.015625 152.269531 175.167969 152.265625 C 175.320312 152.265625 175.46875 152.238281 175.621094 152.222656 C 175.761719 152.207031 175.953125 152.171875 176.132812 152.140625 L 178.300781 151.753906 L 182.632812 150.984375 L 184.796875 150.601562 C 185.15625 150.535156 185.535156 150.472656 185.867188 150.40625 L 186.320312 150.300781 C 186.46875 150.253906 186.613281 150.199219 186.761719 150.152344 C 187.90625 149.703125 188.890625 148.820312 189.417969 147.703125 C 189.945312 146.585938 190.007812 145.285156 189.585938 144.121094 Z M 189.585938 144.121094 " fill-opacity="1" fill-rule="nonzero"/></g><path fill="#acbac7" d="M 161.839844 105.8125 L 158.730469 114.046875 C 157.820312 114.769531 156.171875 115.808594 154.257812 116.964844 C 149.761719 119.675781 143.796875 123.011719 142.488281 124.261719 L 126.078125 139.90625 L 125.335938 140.609375 C 125.003906 140.929688 124.640625 141.199219 124.253906 141.417969 C 122.144531 142.617188 119.386719 142.328125 117.476562 140.566406 L 110.003906 133.679688 C 107.347656 131.226562 107.480469 127.054688 110.285156 124.9375 L 111.332031 124.144531 L 151.003906 94.199219 C 153.140625 92.582031 156.171875 92.722656 158.257812 94.53125 L 161.511719 97.363281 C 164.089844 99.609375 164.242188 103.519531 161.839844 105.8125 Z M 161.839844 105.8125 " fill-opacity="1" fill-rule="nonzero"/><path fill="#f6f4f1" d="M 134.726562 110.152344 L 115.742188 123.621094 L 113.738281 123.304688 L 112.667969 123.132812 L 111.59375 122.964844 L 133.003906 106.921875 L 133.332031 107.539062 L 133.660156 108.152344 Z M 134.726562 110.152344 " fill-opacity="1" fill-rule="nonzero"/><path fill="#acbac7" d="M 154.964844 115.3125 C 154.949219 115.40625 154.6875 116.007812 154.253906 116.964844 C 149.761719 119.675781 143.796875 123.011719 142.484375 124.261719 L 126.078125 139.90625 L 125.335938 140.609375 C 125 140.929688 124.640625 141.199219 124.253906 141.417969 L 124.972656 129.53125 L 145.105469 114.078125 C 145.105469 114.078125 155.066406 114.699219 154.964844 115.3125 Z M 154.964844 115.3125 " fill-opacity="1" fill-rule="nonzero"/><path fill="#2b2b2b" d="M 161.46875 105.585938 L 161.4375 105.660156 L 158.382812 113.796875 C 158.246094 113.878906 158.109375 113.960938 157.980469 114.046875 L 157.78125 114.175781 L 157.546875 114.320312 C 157.230469 114.515625 156.921875 114.71875 156.597656 114.90625 C 155.964844 115.296875 155.3125 115.664062 154.667969 116.039062 C 154.667969 116.039062 154.667969 116.039062 154.664062 116.039062 L 150.738281 118.25 C 149.425781 118.984375 148.121094 119.734375 146.8125 120.488281 C 146.15625 120.859375 145.507812 121.25 144.859375 121.644531 C 144.210938 122.042969 143.566406 122.441406 142.921875 122.890625 L 142.4375 123.234375 L 141.9375 123.648438 L 141.113281 124.417969 L 139.472656 125.972656 L 136.203125 129.078125 L 126.417969 138.429688 L 124.785156 139.988281 C 124.636719 140.132812 124.480469 140.265625 124.320312 140.386719 C 123.96875 140.648438 123.585938 140.859375 123.171875 141.007812 C 121.96875 141.460938 120.585938 141.402344 119.402344 140.867188 C 119.25 140.808594 119.113281 140.726562 118.972656 140.648438 C 118.828125 140.574219 118.695312 140.476562 118.5625 140.386719 C 118.421875 140.300781 118.300781 140.191406 118.175781 140.085938 C 118.054688 139.992188 117.917969 139.863281 117.777344 139.734375 L 111.136719 133.625 C 110.546875 133.089844 110.09375 132.671875 109.734375 132.125 C 109 131.050781 108.738281 129.671875 108.992188 128.410156 C 109.117188 127.777344 109.367188 127.175781 109.734375 126.644531 C 109.835938 126.519531 109.914062 126.378906 110.023438 126.265625 C 110.136719 126.148438 110.242188 126.027344 110.355469 125.914062 L 110.722656 125.601562 C 110.855469 125.492188 111.019531 125.375 111.164062 125.261719 L 113.738281 123.308594 L 133.660156 108.15625 L 139.898438 103.410156 L 147.070312 97.9375 L 150.65625 95.195312 L 151.105469 94.851562 L 151.328125 94.683594 L 151.539062 94.535156 C 151.671875 94.433594 151.816406 94.351562 151.964844 94.265625 C 152.109375 94.179688 152.265625 94.117188 152.417969 94.046875 C 153.035156 93.769531 153.714844 93.644531 154.390625 93.636719 C 155.070312 93.636719 155.753906 93.757812 156.386719 94.015625 C 156.703125 94.148438 157.011719 94.296875 157.296875 94.488281 C 157.441406 94.578125 157.582031 94.675781 157.714844 94.785156 L 157.917969 94.945312 L 158.132812 95.128906 L 160.699219 97.332031 L 161.125 97.699219 C 161.261719 97.820312 161.378906 97.941406 161.507812 98.058594 C 162.476562 99.039062 163.0625 100.390625 163.074219 101.773438 L 163.074219 101.867188 C 163.074219 103.21875 162.519531 104.558594 161.542969 105.503906 Z M 162.226562 97.355469 C 162.082031 97.214844 161.933594 97.0625 161.789062 96.9375 L 161.367188 96.5625 L 160.519531 95.820312 L 158.824219 94.324219 L 158.613281 94.140625 L 158.378906 93.945312 C 158.222656 93.8125 158.054688 93.695312 157.878906 93.585938 C 157.542969 93.355469 157.171875 93.167969 156.796875 93.007812 C 156.039062 92.6875 155.214844 92.527344 154.390625 92.519531 C 153.566406 92.515625 152.734375 92.660156 151.96875 92.988281 C 151.78125 93.074219 151.589844 93.148438 151.410156 93.253906 C 151.226562 93.351562 151.046875 93.453125 150.878906 93.578125 L 150.625 93.75 L 150.394531 93.921875 L 149.945312 94.257812 L 146.324219 96.953125 L 139.097656 102.355469 L 133.003906 106.921875 L 111.59375 122.964844 L 110.210938 124 C 110.058594 124.117188 109.914062 124.21875 109.757812 124.347656 L 109.265625 124.765625 C 109.113281 124.914062 108.96875 125.074219 108.824219 125.230469 C 108.675781 125.390625 108.5625 125.574219 108.429688 125.746094 C 107.9375 126.453125 107.597656 127.261719 107.433594 128.101562 C 107.09375 129.78125 107.4375 131.589844 108.394531 133.007812 C 108.5 133.191406 108.648438 133.351562 108.773438 133.519531 C 108.902344 133.695312 109.050781 133.847656 109.199219 134 L 109.421875 134.230469 C 109.496094 134.304688 109.558594 134.359375 109.632812 134.425781 L 111.703125 136.339844 L 115.011719 139.402344 L 116.671875 140.933594 C 116.808594 141.058594 116.9375 141.183594 117.113281 141.328125 C 117.273438 141.464844 117.4375 141.605469 117.617188 141.71875 C 117.792969 141.84375 117.96875 141.96875 118.15625 142.066406 C 118.34375 142.171875 118.53125 142.277344 118.726562 142.359375 C 120.285156 143.070312 122.125 143.160156 123.75 142.554688 C 124.558594 142.257812 125.3125 141.78125 125.929688 141.1875 L 127.5625 139.632812 L 130.832031 136.527344 L 137.375 130.308594 L 140.632812 127.1875 L 142.261719 125.628906 L 143.070312 124.847656 L 143.4375 124.535156 L 143.867188 124.21875 C 145.042969 123.375 146.335938 122.59375 147.601562 121.800781 L 151.441406 119.4375 C 152.71875 118.648438 154 117.855469 155.265625 117.023438 C 155.898438 116.613281 156.53125 116.195312 157.152344 115.761719 C 157.46875 115.550781 157.777344 115.324219 158.082031 115.09375 L 158.3125 114.925781 L 158.570312 114.722656 C 158.742188 114.582031 158.910156 114.4375 159.074219 114.296875 L 162.203125 106.050781 C 163.347656 104.949219 164.011719 103.363281 164.003906 101.769531 C 164.019531 100.144531 163.363281 98.523438 162.226562 97.355469 Z M 162.226562 97.355469 " fill-opacity="1" fill-rule="nonzero"/><path fill="#acbac7" d="M 129.890625 103.933594 L 129.269531 106.714844 C 129.003906 107.921875 129.679688 109.132812 130.84375 109.535156 C 135.289062 111.066406 146.125 114.679688 154.835938 116.621094 C 163.570312 118.566406 175.378906 120.21875 180.214844 120.855469 C 181.460938 121.019531 182.625 120.207031 182.898438 118.980469 L 184.050781 113.816406 C 184.351562 112.472656 183.46875 111.148438 182.109375 110.90625 L 132.6875 102.078125 C 131.40625 101.847656 130.175781 102.667969 129.890625 103.933594 Z M 129.890625 103.933594 " fill-opacity="1" fill-rule="nonzero"/><path fill="#acbac7" d="M 130.023438 102.625 L 129.398438 105.410156 C 129.132812 106.613281 129.808594 107.824219 130.976562 108.226562 C 135.417969 109.757812 146.253906 113.375 154.964844 115.3125 C 163.699219 117.261719 175.507812 118.910156 180.34375 119.546875 C 181.589844 119.710938 182.753906 118.898438 183.027344 117.671875 L 184.179688 112.507812 C 184.480469 111.164062 183.597656 109.839844 182.238281 109.597656 L 132.816406 100.769531 C 131.539062 100.539062 130.304688 101.359375 130.023438 102.625 Z M 130.023438 102.625 " fill-opacity="1" fill-rule="nonzero"/><path fill="#2b2b2b" d="M 132.253906 102.464844 C 131.335938 102.464844 130.515625 103.097656 130.308594 104.027344 L 129.6875 106.808594 C 129.46875 107.800781 130.023438 108.796875 130.984375 109.128906 C 135.277344 110.609375 146.203125 114.257812 154.929688 116.203125 C 163.679688 118.152344 175.566406 119.808594 180.269531 120.429688 C 181.300781 120.566406 182.253906 119.902344 182.480469 118.886719 L 183.632812 113.722656 C 183.753906 113.1875 183.652344 112.640625 183.347656 112.183594 C 183.042969 111.726562 182.574219 111.421875 182.035156 111.324219 L 132.609375 102.5 C 132.492188 102.476562 132.371094 102.464844 132.253906 102.464844 Z M 180.542969 121.304688 C 180.414062 121.304688 180.285156 121.296875 180.15625 121.277344 C 175.441406 120.65625 163.527344 118.996094 154.742188 117.039062 C 145.972656 115.082031 135.011719 111.421875 130.707031 109.9375 C 129.332031 109.464844 128.535156 108.039062 128.851562 106.621094 L 129.472656 103.839844 C 129.808594 102.34375 131.25 101.382812 132.761719 101.652344 L 182.1875 110.480469 C 182.957031 110.617188 183.625 111.054688 184.058594 111.707031 C 184.496094 112.359375 184.640625 113.140625 184.46875 113.90625 L 183.316406 119.070312 C 183.019531 120.398438 181.863281 121.304688 180.542969 121.304688 Z M 180.542969 121.304688 " fill-opacity="1" fill-rule="nonzero"/><path fill="#acbac7" d="M 188.40625 110.886719 C 187.316406 115.460938 181.929688 116.953125 175.898438 117.09375 C 166.964844 117.304688 156.605469 114.574219 156.605469 114.574219 C 156.605469 114.574219 146.0625 112.648438 138.074219 108.667969 C 134.898438 107.085938 132.121094 105.179688 130.570312 102.941406 C 129.484375 101.371094 128.992188 99.636719 129.390625 97.738281 C 131.203125 88.992188 145.011719 68.085938 151.398438 58.753906 C 153.359375 55.886719 154.621094 54.109375 154.621094 54.109375 L 169.164062 58.328125 L 184.132812 60.683594 C 184.132812 60.683594 191.121094 99.535156 188.40625 110.886719 Z M 188.40625 110.886719 " fill-opacity="1" fill-rule="nonzero"/><path fill="#acbac7" d="M 158.59375 66.667969 C 158.59375 66.667969 156.273438 68.589844 154.253906 71.886719 C 152.234375 75.183594 143.777344 82.738281 140.53125 84.183594 C 137.292969 85.625 130.152344 99.15625 130.757812 102.039062 C 130.84375 102.445312 130.765625 102.734375 130.570312 102.9375 C 129.484375 101.367188 128.992188 99.636719 129.390625 97.734375 C 131.203125 88.992188 145.011719 68.085938 151.398438 58.75 Z M 158.59375 66.667969 " fill-opacity="1" fill-rule="nonzero"/><path fill="#2b2b2b" d="M 187.480469 110.664062 C 187.882812 108.738281 188.015625 106.65625 188.082031 104.589844 C 188.144531 102.515625 188.105469 100.425781 188.023438 98.332031 C 187.847656 94.148438 187.5 89.960938 187.074219 85.777344 C 186.644531 81.597656 186.136719 77.417969 185.570312 73.25 C 185.007812 69.078125 184.390625 64.910156 183.710938 60.761719 L 184.066406 61.109375 L 169.101562 58.75 L 169.074219 58.746094 L 169.050781 58.738281 L 154.503906 54.519531 L 154.972656 54.359375 L 154.96875 54.359375 C 150.925781 60.167969 147.007812 66.078125 143.238281 72.070312 C 141.359375 75.070312 139.519531 78.09375 137.753906 81.15625 C 136 84.226562 134.285156 87.320312 132.785156 90.503906 C 132.035156 92.09375 131.320312 93.703125 130.753906 95.34375 C 130.601562 95.75 130.492188 96.164062 130.355469 96.578125 C 130.226562 96.988281 130.148438 97.402344 130.042969 97.8125 C 129.890625 98.609375 129.882812 99.402344 130.046875 100.179688 C 130.398438 101.730469 131.410156 103.117188 132.644531 104.261719 C 133.882812 105.410156 135.328125 106.375 136.847656 107.214844 C 138.367188 108.054688 139.960938 108.773438 141.578125 109.441406 C 143.203125 110.09375 144.863281 110.671875 146.535156 111.207031 C 148.210938 111.738281 149.90625 112.210938 151.613281 112.644531 C 153.316406 113.074219 155.046875 113.46875 156.753906 113.789062 L 156.777344 113.792969 L 156.8125 113.800781 C 158.175781 114.140625 159.585938 114.441406 160.980469 114.714844 C 162.382812 114.988281 163.789062 115.234375 165.199219 115.4375 C 168.019531 115.859375 170.855469 116.140625 173.683594 116.207031 C 175.097656 116.234375 176.507812 116.21875 177.902344 116.089844 C 179.292969 115.96875 180.671875 115.757812 181.984375 115.390625 C 183.285156 115.019531 184.523438 114.476562 185.519531 113.695312 C 186.523438 112.921875 187.179688 111.859375 187.480469 110.664062 Z M 189.335938 111.105469 C 188.941406 112.699219 187.96875 114.195312 186.675781 115.160156 C 185.390625 116.148438 183.929688 116.75 182.472656 117.152344 C 181.003906 117.546875 179.523438 117.761719 178.046875 117.878906 C 176.570312 117.996094 175.101562 118 173.636719 117.960938 C 170.710938 117.867188 167.8125 117.550781 164.945312 117.097656 C 163.507812 116.875 162.082031 116.613281 160.660156 116.324219 C 159.234375 116.03125 157.828125 115.71875 156.402344 115.351562 L 156.460938 115.363281 C 154.683594 115.015625 152.957031 114.601562 151.222656 114.148438 C 149.492188 113.695312 147.773438 113.203125 146.074219 112.644531 C 144.371094 112.085938 142.683594 111.480469 141.023438 110.792969 C 139.367188 110.09375 137.730469 109.339844 136.152344 108.445312 C 134.574219 107.558594 133.050781 106.53125 131.699219 105.257812 C 131.035156 104.609375 130.394531 103.921875 129.886719 103.109375 C 129.375 102.308594 128.945312 101.421875 128.75 100.457031 C 128.550781 99.496094 128.574219 98.492188 128.765625 97.542969 C 128.886719 97.101562 128.980469 96.644531 129.121094 96.210938 C 129.261719 95.78125 129.386719 95.339844 129.546875 94.917969 C 130.15625 93.214844 130.894531 91.582031 131.671875 89.972656 C 133.226562 86.757812 134.976562 83.65625 136.769531 80.585938 C 138.570312 77.523438 140.445312 74.503906 142.355469 71.511719 C 146.191406 65.535156 150.160156 59.65625 154.273438 53.863281 L 154.273438 53.859375 L 154.449219 53.613281 L 154.742188 53.695312 L 169.285156 57.914062 L 169.234375 57.902344 L 184.199219 60.261719 L 184.5 60.308594 L 184.554688 60.605469 C 185.332031 64.757812 186.042969 68.910156 186.707031 73.078125 C 187.367188 77.246094 187.972656 81.425781 188.503906 85.613281 C 189.023438 89.804688 189.472656 94.011719 189.75 98.242188 C 189.878906 100.359375 189.964844 102.484375 189.953125 104.621094 C 189.933594 106.761719 189.839844 108.914062 189.335938 111.105469 Z M 189.335938 111.105469 " fill-opacity="1" fill-rule="nonzero"/><path fill="#acbac7" d="M 177.757812 72.046875 C 177.757812 72.046875 178.359375 90.464844 188.355469 94.96875 C 187.597656 85.761719 186.105469 75.527344 185.0625 68.984375 C 182.386719 69.96875 177.757812 72.046875 177.757812 72.046875 Z M 177.757812 72.046875 " fill-opacity="1" fill-rule="nonzero"/><path fill="#2b2b2b" d="M 178.199219 72.320312 C 178.328125 74.59375 179.503906 89.746094 187.867188 94.253906 C 187.121094 85.578125 185.765625 76.171875 184.71875 69.570312 C 182.445312 70.4375 179.148438 71.894531 178.199219 72.320312 Z M 188.832031 95.53125 L 188.175781 95.359375 C 178.058594 90.796875 177.355469 72.824219 177.328125 72.0625 L 177.320312 71.777344 L 177.578125 71.65625 C 177.625 71.636719 182.253906 69.558594 184.910156 68.582031 L 185.398438 68.402344 L 185.480469 68.914062 C 186.570312 75.742188 188.03125 85.796875 188.78125 94.933594 Z M 188.832031 95.53125 " fill-opacity="1" fill-rule="nonzero"/><path fill="#acbac7" d="M 156.117188 65.804688 C 156.117188 65.804688 147.734375 82.214844 136.769531 82.054688 C 141.371094 74.042969 147.078125 65.40625 150.808594 59.929688 C 152.808594 61.953125 156.117188 65.804688 156.117188 65.804688 Z M 156.117188 65.804688 " fill-opacity="1" fill-rule="nonzero"/><path fill="#2b2b2b" d="M 150.867188 60.601562 C 147.109375 66.136719 141.882812 74.078125 137.515625 81.613281 C 147.003906 81.082031 154.515625 67.863281 155.601562 65.859375 C 154.917969 65.074219 152.558594 62.359375 150.867188 60.601562 Z M 136.933594 82.484375 C 136.878906 82.484375 136.820312 82.484375 136.765625 82.480469 L 136.6875 82.472656 L 136.105469 82.355469 L 136.398438 81.839844 C 140.964844 73.890625 146.5625 65.40625 150.453125 59.691406 L 150.746094 59.261719 L 151.113281 59.628906 C 153.101562 61.644531 156.40625 65.488281 156.441406 65.527344 L 156.625 65.742188 L 156.496094 66 C 156.152344 66.671875 147.949219 82.484375 136.933594 82.484375 Z M 136.933594 82.484375 " fill-opacity="1" fill-rule="nonzero"/><path fill="#acbac7" d="M 180.710938 95.535156 L 175.898438 117.09375 C 166.96875 117.304688 156.605469 114.574219 156.605469 114.574219 C 156.605469 114.574219 147.949219 112.992188 140.382812 109.734375 C 139.597656 109.394531 138.824219 109.039062 138.074219 108.667969 L 142.886719 87.109375 C 143.335938 85.089844 145.339844 83.824219 147.355469 84.273438 L 151.6875 85.238281 L 177.871094 91.074219 C 179.894531 91.523438 181.160156 93.519531 180.710938 95.535156 Z M 180.710938 95.535156 " fill-opacity="1" fill-rule="nonzero"/><path fill="#acbac7" d="M 153.355469 86.160156 C 153.355469 86.160156 146.285156 84.800781 145.105469 87.546875 C 144.113281 89.847656 141.277344 104.902344 140.378906 109.734375 C 139.597656 109.394531 138.824219 109.039062 138.074219 108.667969 L 142.886719 87.109375 C 143.335938 85.089844 145.339844 83.824219 147.351562 84.273438 L 151.6875 85.238281 Z M 153.355469 86.160156 " fill-opacity="1" fill-rule="nonzero"/><path fill="#2b2b2b" d="M 180.1875 95.417969 C 180.304688 94.851562 180.289062 94.25 180.09375 93.703125 C 179.914062 93.148438 179.566406 92.65625 179.128906 92.277344 C 178.90625 92.089844 178.65625 91.9375 178.398438 91.8125 C 178.261719 91.761719 178.128906 91.699219 177.988281 91.664062 L 177.777344 91.605469 L 177.535156 91.546875 L 175.546875 91.105469 L 167.601562 89.335938 L 151.707031 85.792969 L 147.734375 84.90625 L 147.238281 84.796875 C 147.09375 84.777344 146.949219 84.734375 146.804688 84.734375 C 146.515625 84.699219 146.222656 84.734375 145.9375 84.777344 C 145.652344 84.835938 145.375 84.929688 145.113281 85.054688 C 144.859375 85.191406 144.609375 85.34375 144.394531 85.546875 C 144.183594 85.742188 143.984375 85.960938 143.835938 86.207031 C 143.675781 86.449219 143.558594 86.71875 143.472656 86.996094 L 143.414062 87.207031 L 143.359375 87.453125 L 143.246094 87.949219 L 143.027344 88.941406 L 142.136719 92.910156 L 140.324219 100.835938 L 139.417969 104.800781 L 138.488281 108.761719 L 138.261719 108.285156 C 139.710938 108.988281 141.1875 109.636719 142.695312 110.210938 C 144.207031 110.78125 145.730469 111.316406 147.277344 111.785156 C 148.824219 112.261719 150.382812 112.699219 151.953125 113.097656 C 153.519531 113.488281 155.105469 113.855469 156.683594 114.160156 L 156.699219 114.160156 L 156.714844 114.164062 C 158.269531 114.558594 159.859375 114.902344 161.445312 115.210938 C 163.035156 115.519531 164.632812 115.785156 166.234375 116.011719 C 167.835938 116.238281 169.445312 116.402344 171.054688 116.53125 C 172.664062 116.648438 174.277344 116.691406 175.886719 116.667969 L 175.476562 117.003906 L 176.636719 111.605469 L 177.820312 106.210938 Z M 181.238281 95.652344 L 178.789062 106.421875 L 177.5625 111.808594 L 176.316406 117.1875 L 176.238281 117.519531 L 175.90625 117.519531 C 174.265625 117.542969 172.625 117.5 170.992188 117.378906 C 169.363281 117.25 167.734375 117.085938 166.117188 116.855469 C 164.5 116.625 162.890625 116.355469 161.285156 116.046875 C 159.679688 115.734375 158.089844 115.394531 156.496094 114.988281 L 156.53125 114.996094 C 154.914062 114.683594 153.328125 114.320312 151.746094 113.921875 C 150.160156 113.519531 148.589844 113.082031 147.027344 112.601562 C 145.464844 112.125 143.921875 111.585938 142.390625 111.007812 C 140.859375 110.421875 139.359375 109.765625 137.882812 109.046875 L 137.878906 109.046875 L 137.582031 108.910156 L 137.652344 108.574219 L 138.496094 104.59375 L 139.359375 100.621094 L 141.09375 92.671875 L 141.976562 88.703125 L 142.199219 87.710938 L 142.308594 87.214844 L 142.367188 86.964844 L 142.445312 86.683594 C 142.554688 86.316406 142.714844 85.957031 142.925781 85.632812 C 143.128906 85.300781 143.390625 85.007812 143.675781 84.746094 C 143.960938 84.480469 144.292969 84.273438 144.632812 84.09375 C 144.984375 83.925781 145.351562 83.800781 145.734375 83.722656 C 146.113281 83.660156 146.507812 83.621094 146.894531 83.664062 C 147.085938 83.671875 147.277344 83.722656 147.46875 83.75 L 147.964844 83.859375 L 151.9375 84.746094 L 167.832031 88.285156 L 175.777344 90.058594 L 177.765625 90.5 L 178.015625 90.558594 L 178.296875 90.632812 C 178.484375 90.683594 178.664062 90.765625 178.84375 90.835938 C 179.191406 91.003906 179.523438 91.207031 179.820312 91.460938 C 180.410156 91.964844 180.871094 92.621094 181.109375 93.359375 C 181.371094 94.09375 181.394531 94.898438 181.238281 95.652344 Z M 181.238281 95.652344 " fill-opacity="1" fill-rule="nonzero"/><path fill="#2b2b2b" d="M 135.542969 130.390625 C 131.4375 118.382812 122.308594 116.957031 121.921875 116.902344 L 122.152344 115.222656 C 122.582031 115.28125 132.691406 116.800781 137.152344 129.84375 Z M 135.542969 130.390625 " fill-opacity="1" fill-rule="nonzero"/><path fill="#2b2b2b" d="M 166.191406 134.238281 L 164.984375 133.042969 C 165.289062 132.738281 172.574219 125.570312 185.691406 129.835938 L 185.164062 131.449219 C 173.085938 127.523438 166.464844 133.960938 166.191406 134.238281 Z M 166.191406 134.238281 " fill-opacity="1" fill-rule="nonzero"/><path fill="#acbac7" d="M 125.820312 141.507812 C 122.847656 144.722656 118.101562 143.054688 113.3125 138.640625 C 112.699219 138.074219 112.113281 137.488281 111.570312 136.894531 C 109.078125 134.183594 107.375 131.25 107.304688 128.773438 C 107.265625 127.550781 107.625 126.441406 108.476562 125.519531 C 110.105469 123.757812 112.722656 123.253906 115.546875 123.878906 C 117.886719 124.394531 120.359375 125.6875 122.527344 127.6875 C 123.164062 128.277344 123.738281 128.890625 124.253906 129.53125 C 127.628906 133.695312 128.394531 138.71875 125.820312 141.507812 Z M 125.820312 141.507812 " fill-opacity="1" fill-rule="nonzero"/><path fill="#f6f4f1" d="M 115.546875 123.878906 C 115.222656 123.953125 109.160156 125.367188 107.304688 128.773438 C 107.265625 127.550781 107.625 126.441406 108.480469 125.519531 C 110.105469 123.757812 112.722656 123.253906 115.546875 123.878906 Z M 115.546875 123.878906 " fill-opacity="1" fill-rule="nonzero"/><path fill="#acbac7" d="M 125.820312 141.507812 C 122.847656 144.722656 118.101562 143.054688 113.3125 138.640625 C 112.699219 138.074219 112.113281 137.488281 111.570312 136.894531 C 114.097656 138.347656 116.925781 138.636719 118.558594 139.121094 C 123.421875 140.574219 124.257812 129.53125 124.257812 129.53125 C 127.628906 133.695312 128.394531 138.71875 125.820312 141.507812 Z M 125.820312 141.507812 " fill-opacity="1" fill-rule="nonzero"/><g clip-path="url(#7de1a7d2ca)"><path fill="#2b2b2b" d="M 125.207031 140.941406 C 125.953125 140.167969 126.417969 139.125 126.550781 137.992188 C 126.695312 136.863281 126.546875 135.667969 126.226562 134.519531 C 125.566406 132.210938 124.199219 130.078125 122.457031 128.34375 C 120.71875 126.597656 118.582031 125.203125 116.222656 124.503906 C 115.046875 124.152344 113.816406 123.980469 112.617188 124.085938 C 111.417969 124.1875 110.253906 124.589844 109.351562 125.328125 C 108.902344 125.703125 108.519531 126.144531 108.253906 126.640625 C 107.980469 127.136719 107.855469 127.695312 107.816406 128.265625 C 107.757812 129.410156 108.117188 130.589844 108.632812 131.675781 C 109.152344 132.769531 109.839844 133.796875 110.609375 134.761719 C 111.378906 135.722656 112.230469 136.632812 113.132812 137.476562 C 114.039062 138.328125 114.992188 139.125 115.984375 139.84375 C 116.980469 140.558594 118.027344 141.191406 119.121094 141.644531 C 120.207031 142.09375 121.347656 142.351562 122.414062 142.285156 C 123.476562 142.203125 124.4375 141.734375 125.207031 140.941406 Z M 126.429688 142.070312 L 126.039062 142.453125 C 125.90625 142.578125 125.785156 142.710938 125.628906 142.8125 C 125.328125 143.03125 125.035156 143.257812 124.691406 143.414062 C 124.523438 143.492188 124.363281 143.597656 124.183594 143.65625 L 123.652344 143.835938 C 123.476562 143.902344 123.289062 143.917969 123.105469 143.953125 C 122.921875 143.980469 122.738281 144.027344 122.554688 144.035156 C 121.074219 144.136719 119.683594 143.742188 118.453125 143.1875 C 117.214844 142.625 116.097656 141.894531 115.054688 141.101562 C 114.015625 140.296875 113.035156 139.4375 112.132812 138.503906 C 110.320312 136.648438 108.679688 134.578125 107.59375 132.148438 C 107.074219 130.933594 106.695312 129.59375 106.8125 128.195312 C 106.878906 127.5 107.070312 126.804688 107.417969 126.1875 C 107.765625 125.570312 108.242188 125.046875 108.777344 124.621094 C 109.867188 123.765625 111.214844 123.324219 112.542969 123.222656 C 113.878906 123.121094 115.207031 123.3125 116.464844 123.675781 C 118.988281 124.421875 121.261719 125.824219 123.179688 127.59375 C 124.140625 128.484375 124.996094 129.484375 125.746094 130.570312 C 126.488281 131.65625 127.105469 132.84375 127.535156 134.117188 C 127.960938 135.386719 128.183594 136.757812 128.0625 138.15625 C 127.953125 139.546875 127.410156 140.972656 126.429688 142.070312 Z M 126.429688 142.070312 " fill-opacity="1" fill-rule="nonzero"/></g><path fill="#acbac7" d="M 192.082031 148.601562 C 190.699219 150.933594 187.324219 152.527344 182.878906 153.34375 C 176.46875 154.519531 170.261719 153.636719 169.46875 149.335938 C 168.917969 146.347656 170.941406 143.296875 174.375 141.316406 C 174.375 141.3125 174.375 141.3125 174.375 141.3125 C 175.890625 140.441406 177.679688 139.773438 179.640625 139.414062 C 186.050781 138.234375 191.886719 140.769531 192.679688 145.070312 C 192.921875 146.390625 192.699219 147.570312 192.082031 148.601562 Z M 192.082031 148.601562 " fill-opacity="1" fill-rule="nonzero"/><path fill="#acbac7" d="M 192.082031 148.601562 C 190.699219 150.933594 187.324219 152.527344 182.878906 153.34375 C 176.46875 154.519531 170.261719 153.636719 169.46875 149.335938 C 168.917969 146.347656 170.941406 143.296875 174.375 141.316406 C 174.3125 141.492188 171.785156 148.925781 180.476562 150.011719 C 185.589844 150.648438 189.609375 149.597656 192.082031 148.601562 Z M 192.082031 148.601562 " fill-opacity="1" fill-rule="nonzero"/><g clip-path="url(#dc82544b43)"><path fill="#2b2b2b" d="M 192.121094 145.175781 C 191.933594 144.054688 191.339844 143.003906 190.480469 142.191406 C 189.625 141.367188 188.550781 140.75 187.410156 140.328125 C 185.105469 139.476562 182.539062 139.378906 180.109375 139.796875 C 177.675781 140.222656 175.300781 141.140625 173.375 142.636719 C 172.417969 143.378906 171.574219 144.261719 170.964844 145.269531 C 170.355469 146.269531 170.015625 147.40625 170.070312 148.515625 C 170.105469 149.070312 170.230469 149.609375 170.457031 150.082031 C 170.679688 150.5625 171.023438 150.972656 171.433594 151.320312 C 172.265625 152.023438 173.382812 152.441406 174.539062 152.683594 C 175.703125 152.929688 176.925781 153.015625 178.148438 153 C 179.371094 152.976562 180.601562 152.871094 181.824219 152.6875 C 184.261719 152.308594 186.714844 151.75 188.835938 150.621094 C 189.882812 150.054688 190.835938 149.324219 191.464844 148.390625 C 192.089844 147.457031 192.300781 146.316406 192.121094 145.175781 Z M 193.238281 144.96875 L 193.304688 145.488281 C 193.328125 145.664062 193.359375 145.835938 193.347656 146.011719 C 193.347656 146.367188 193.351562 146.722656 193.273438 147.074219 C 193.183594 147.785156 192.886719 148.453125 192.535156 149.066406 C 191.777344 150.269531 190.6875 151.167969 189.535156 151.851562 C 188.378906 152.542969 187.140625 153.03125 185.890625 153.425781 C 184.636719 153.816406 183.363281 154.109375 182.074219 154.308594 C 179.5 154.699219 176.839844 154.820312 174.195312 154.238281 C 173.535156 154.085938 172.882812 153.878906 172.246094 153.59375 C 171.613281 153.308594 170.988281 152.949219 170.445312 152.457031 C 169.90625 151.972656 169.4375 151.367188 169.144531 150.683594 C 168.84375 150 168.710938 149.273438 168.695312 148.5625 C 168.667969 147.125 169.15625 145.746094 169.90625 144.609375 C 170.65625 143.464844 171.636719 142.519531 172.707031 141.746094 C 174.871094 140.207031 177.386719 139.28125 179.960938 138.894531 C 182.535156 138.515625 185.207031 138.648438 187.707031 139.492188 C 188.949219 139.925781 190.15625 140.550781 191.164062 141.457031 C 192.179688 142.351562 192.960938 143.589844 193.238281 144.96875 Z M 193.238281 144.96875 " fill-opacity="1" fill-rule="nonzero"/></g><path fill="#2b2b2b" d="M 201.554688 82.671875 C 194.058594 78.410156 196.964844 68.679688 196.996094 68.585938 L 198.074219 68.917969 C 197.964844 69.28125 195.414062 77.878906 202.117188 81.6875 Z M 201.554688 82.671875 " fill-opacity="1" fill-rule="nonzero"/><path fill="#2b2b2b" d="M 131.46875 66.179688 L 131.328125 65.058594 C 137.871094 64.25 141.019531 55.597656 141.050781 55.511719 L 142.117188 55.890625 C 141.980469 56.273438 138.707031 65.285156 131.46875 66.179688 Z M 131.46875 66.179688 " fill-opacity="1" fill-rule="nonzero"/><path fill="#acbac7" d="M 153.359375 93.195312 C 153.359375 95.472656 151.511719 97.320312 149.234375 97.320312 C 148.820312 97.320312 148.421875 97.257812 148.042969 97.144531 C 146.34375 96.636719 145.105469 95.058594 145.105469 93.195312 C 145.105469 91.125 146.636719 89.414062 148.625 89.121094 C 148.824219 89.089844 149.027344 89.078125 149.234375 89.078125 C 151.511719 89.078125 153.359375 90.921875 153.359375 93.195312 Z M 153.359375 93.195312 " fill-opacity="1" fill-rule="nonzero"/><path fill="#acbac7" d="M 153.359375 93.195312 C 153.359375 95.472656 151.511719 97.320312 149.234375 97.320312 C 148.820312 97.320312 148.421875 97.257812 148.042969 97.144531 C 151.152344 94.253906 149.503906 90.59375 148.625 89.121094 C 148.824219 89.089844 149.027344 89.078125 149.234375 89.078125 C 151.511719 89.078125 153.359375 90.921875 153.359375 93.195312 Z M 153.359375 93.195312 " fill-opacity="1" fill-rule="nonzero"/><path fill="#2b2b2b" d="M 149.234375 89.503906 C 147.195312 89.503906 145.535156 91.160156 145.535156 93.195312 C 145.535156 95.234375 147.195312 96.890625 149.234375 96.890625 C 151.273438 96.890625 152.929688 95.234375 152.929688 93.195312 C 152.929688 91.160156 151.273438 89.503906 149.234375 89.503906 Z M 149.234375 97.746094 C 146.722656 97.746094 144.679688 95.707031 144.679688 93.195312 C 144.679688 90.6875 146.722656 88.648438 149.234375 88.648438 C 151.746094 88.648438 153.785156 90.6875 153.785156 93.195312 C 153.785156 95.707031 151.742188 97.746094 149.234375 97.746094 Z M 149.234375 97.746094 " fill-opacity="1" fill-rule="nonzero"/><path fill="#acbac7" d="M 136.480469 25.898438 L 140.042969 9.105469 L 141.996094 9.414062 L 139.765625 24.421875 Z M 136.480469 25.898438 " fill-opacity="1" fill-rule="nonzero"/><path fill="#2b2b2b" d="M 140.378906 9.589844 L 137.078125 25.164062 L 139.378906 24.128906 L 141.511719 9.769531 Z M 135.890625 26.632812 L 139.707031 8.621094 L 142.484375 9.054688 L 140.15625 24.714844 Z M 135.890625 26.632812 " fill-opacity="1" fill-rule="nonzero"/><path fill="#acbac7" d="M 139.660156 51.867188 C 139.660156 51.867188 139.195312 51.695312 138.503906 51.394531 C 137.089844 50.78125 134.742188 49.636719 133.53125 48.375 C 131.730469 46.492188 132.675781 31.449219 133.484375 28.8125 C 133.953125 27.277344 136.820312 25.582031 139.125 24.4375 C 140.769531 23.621094 142.128906 23.085938 142.128906 23.085938 Z M 139.660156 51.867188 " fill-opacity="1" fill-rule="nonzero"/><path fill="#acbac7" d="M 139.660156 51.867188 C 139.660156 51.867188 139.195312 51.695312 138.503906 51.394531 C 132.097656 43.859375 138.144531 25.542969 138.144531 25.542969 L 139.121094 24.4375 C 140.765625 23.621094 142.125 23.082031 142.125 23.082031 Z M 139.660156 51.867188 " fill-opacity="1" fill-rule="nonzero"/><path fill="#2b2b2b" d="M 142.285156 23.480469 C 140.878906 24.101562 139.476562 24.78125 138.144531 25.542969 C 137.480469 25.921875 136.832031 26.328125 136.210938 26.757812 C 135.597656 27.191406 135.007812 27.660156 134.554688 28.183594 C 134.332031 28.445312 134.152344 28.722656 134.078125 28.96875 C 133.984375 29.269531 133.921875 29.660156 133.863281 30.023438 C 133.746094 30.773438 133.667969 31.539062 133.59375 32.308594 C 133.445312 33.84375 133.347656 35.390625 133.285156 36.941406 C 133.21875 38.484375 133.179688 40.035156 133.199219 41.578125 C 133.226562 43.117188 133.273438 44.664062 133.484375 46.144531 C 133.515625 46.324219 133.539062 46.511719 133.578125 46.6875 L 133.632812 46.953125 L 133.699219 47.203125 C 133.71875 47.292969 133.746094 47.371094 133.773438 47.445312 C 133.800781 47.515625 133.824219 47.609375 133.855469 47.660156 C 133.886719 47.71875 133.914062 47.800781 133.945312 47.835938 C 133.960938 47.851562 133.972656 47.871094 133.984375 47.894531 L 134.003906 47.921875 L 134.046875 47.96875 C 134.523438 48.46875 135.132812 48.910156 135.761719 49.320312 C 137.027344 50.132812 138.414062 50.839844 139.808594 51.464844 L 139.511719 52.265625 C 138.742188 52.019531 138.015625 51.730469 137.28125 51.414062 C 136.550781 51.101562 135.835938 50.75 135.132812 50.34375 C 134.433594 49.9375 133.75 49.480469 133.121094 48.878906 L 133.0625 48.824219 L 132.992188 48.734375 L 132.855469 48.558594 C 132.765625 48.4375 132.726562 48.335938 132.664062 48.21875 C 132.601562 48.105469 132.574219 48.003906 132.53125 47.894531 C 132.488281 47.789062 132.449219 47.679688 132.421875 47.578125 L 132.332031 47.269531 L 132.261719 46.960938 C 132.214844 46.757812 132.183594 46.554688 132.144531 46.355469 C 132.007812 45.550781 131.941406 44.753906 131.890625 43.960938 C 131.839844 43.167969 131.816406 42.378906 131.8125 41.589844 C 131.800781 40.011719 131.839844 38.441406 131.917969 36.871094 C 132.003906 35.304688 132.121094 33.738281 132.292969 32.171875 C 132.382812 31.386719 132.488281 30.605469 132.625 29.816406 C 132.703125 29.414062 132.769531 29.03125 132.914062 28.589844 C 133.085938 28.09375 133.367188 27.722656 133.652344 27.394531 C 134.242188 26.75 134.898438 26.261719 135.566406 25.8125 C 136.238281 25.363281 136.9375 24.972656 137.640625 24.605469 C 139.050781 23.878906 140.484375 23.238281 141.972656 22.679688 Z M 142.285156 23.480469 " fill-opacity="1" fill-rule="nonzero"/><path fill="#acbac7" d="M 215.789062 40.324219 L 218.382812 23.355469 L 216.445312 22.957031 L 213.234375 37.785156 Z M 215.789062 40.324219 " fill-opacity="1" fill-rule="nonzero"/><path fill="#2b2b2b" d="M 213.703125 37.648438 L 215.492188 39.425781 L 217.898438 23.691406 L 216.773438 23.460938 Z M 216.082031 41.222656 L 212.769531 37.925781 L 216.117188 22.449219 L 218.867188 23.019531 Z M 216.082031 41.222656 " fill-opacity="1" fill-rule="nonzero"/><path fill="#acbac7" d="M 210.613281 62.398438 C 209.632812 62.867188 208.253906 63.140625 206.984375 63.296875 C 205.210938 63.511719 203.648438 63.507812 203.648438 63.507812 L 211.5 35.703125 C 211.5 35.703125 212.847656 36.925781 214.273438 38.511719 C 215.917969 40.335938 217.660156 42.636719 217.566406 44.109375 C 217.390625 46.859375 212.964844 61.273438 210.613281 62.398438 Z M 210.613281 62.398438 " fill-opacity="1" fill-rule="nonzero"/><path fill="#acbac7" d="M 206.984375 63.296875 C 205.210938 63.511719 203.648438 63.507812 203.648438 63.507812 L 211.5 35.703125 C 211.5 35.703125 212.847656 36.925781 214.273438 38.511719 C 214.15625 41.550781 213.289062 54.800781 206.984375 63.296875 Z M 206.984375 63.296875 " fill-opacity="1" fill-rule="nonzero"/><path fill="#2b2b2b" d="M 203.648438 63.9375 L 203.648438 63.082031 C 203.695312 63.082031 208.195312 63.082031 210.429688 62.011719 C 212.433594 61.054688 216.945312 47.15625 217.140625 44.082031 C 217.273438 41.996094 212.90625 37.554688 211.210938 36.019531 L 211.785156 35.386719 C 212.441406 35.976562 218.175781 41.261719 217.996094 44.136719 C 217.824219 46.792969 213.417969 61.53125 210.800781 62.785156 C 208.390625 63.9375 203.839844 63.9375 203.648438 63.9375 Z M 203.648438 63.9375 " fill-opacity="1" fill-rule="nonzero"/><path fill="#acbac7" d="M 203.660156 63.480469 C 203.335938 63.851562 203.007812 64.210938 202.664062 64.5625 C 201.90625 65.347656 201.09375 66.085938 200.238281 66.78125 C 198.414062 68.257812 196.382812 69.523438 194.144531 70.566406 C 187.457031 73.679688 178.953125 74.769531 168.800781 73.328125 C 158.792969 71.101562 151.214844 67.085938 146.0625 61.820312 C 144.335938 60.054688 142.878906 58.152344 141.695312 56.128906 C 141.613281 55.996094 141.539062 55.859375 141.460938 55.726562 C 135.480469 45.113281 137.105469 31.28125 144.789062 16.644531 C 147.046875 12.339844 150.140625 9.074219 153.761719 6.699219 C 161.652344 1.523438 172.042969 0.570312 181.753906 2.289062 C 189.777344 3.789062 197.59375 7.164062 203.199219 12.613281 C 207.472656 16.761719 210.464844 22.113281 211.28125 28.742188 C 211.589844 31.234375 211.769531 33.660156 211.824219 36.007812 C 212.101562 47.296875 209.453125 56.816406 203.660156 63.480469 Z M 203.660156 63.480469 " fill-opacity="1" fill-rule="nonzero"/><path fill="#f6f4f1" d="M 203.199219 12.613281 C 198.90625 9.945312 191.824219 6.652344 180.554688 4.671875 C 169.796875 2.78125 160.25 4.617188 153.761719 6.699219 C 161.652344 1.523438 172.042969 0.570312 181.753906 2.289062 C 189.777344 3.789062 197.59375 7.167969 203.199219 12.613281 Z M 203.199219 12.613281 " fill-opacity="1" fill-rule="nonzero"/><path fill="#acbac7" d="M 202.664062 64.5625 C 201.90625 65.347656 201.09375 66.085938 200.238281 66.78125 C 198.414062 68.257812 196.382812 69.523438 194.144531 70.566406 C 187.457031 73.679688 178.953125 74.769531 168.800781 73.328125 C 158.792969 71.101562 151.214844 67.085938 146.0625 61.820312 C 144.335938 60.054688 142.878906 58.152344 141.695312 56.128906 C 141.613281 55.996094 141.539062 55.859375 141.460938 55.726562 C 140.121094 50.101562 139.46875 39.558594 144.984375 28.984375 C 154.15625 11.410156 163.214844 8.46875 180.09375 11.539062 C 195.449219 14.332031 209.035156 25.222656 206.226562 49.363281 C 205.535156 55.347656 204.234375 60.378906 202.664062 64.5625 Z M 202.664062 64.5625 " fill-opacity="1" fill-rule="nonzero"/><g clip-path="url(#d4c7a06feb)"><path fill="#2b2b2b" d="M 203.183594 63.066406 C 205.796875 60.039062 207.695312 56.4375 208.957031 52.636719 C 209.597656 50.734375 210.058594 48.773438 210.398438 46.792969 C 210.738281 44.808594 210.96875 42.804688 211.0625 40.789062 C 211.269531 36.761719 211.058594 32.703125 210.546875 28.695312 C 210.039062 24.746094 208.648438 20.925781 206.441406 17.621094 C 205.335938 15.96875 204.046875 14.4375 202.613281 13.050781 C 201.179688 11.667969 199.597656 10.429688 197.925781 9.324219 C 194.582031 7.113281 190.859375 5.484375 187.011719 4.304688 C 185.085938 3.714844 183.117188 3.246094 181.136719 2.90625 C 179.152344 2.574219 177.144531 2.355469 175.132812 2.257812 C 171.109375 2.082031 167.058594 2.402344 163.171875 3.386719 C 161.230469 3.882812 159.335938 4.542969 157.523438 5.386719 C 155.714844 6.226562 154.007812 7.277344 152.429688 8.492188 C 150.855469 9.710938 149.421875 11.109375 148.179688 12.667969 C 146.929688 14.226562 145.882812 15.910156 144.984375 17.722656 C 143.136719 21.324219 141.558594 25.066406 140.40625 28.9375 L 139.976562 30.390625 L 139.449219 32.59375 L 139.359375 32.960938 L 139.292969 33.332031 L 139.023438 34.820312 C 138.980469 35.066406 138.929688 35.316406 138.890625 35.5625 L 138.800781 36.3125 L 138.621094 37.808594 C 138.570312 38.308594 138.558594 38.8125 138.523438 39.3125 L 138.484375 40.066406 L 138.460938 40.441406 L 138.464844 40.816406 C 138.484375 41.820312 138.453125 42.824219 138.570312 43.820312 C 138.617188 44.320312 138.640625 44.820312 138.699219 45.316406 C 138.777344 45.8125 138.851562 46.304688 138.921875 46.804688 C 138.960938 47.050781 138.984375 47.300781 139.035156 47.546875 L 139.195312 48.277344 C 139.304688 48.765625 139.398438 49.261719 139.519531 49.746094 L 139.957031 51.183594 C 140.035156 51.421875 140.097656 51.667969 140.183594 51.902344 L 140.464844 52.601562 C 140.660156 53.0625 140.835938 53.535156 141.046875 53.992188 L 141.75 55.324219 C 141.871094 55.542969 141.984375 55.769531 142.109375 55.988281 C 142.238281 56.203125 142.367188 56.417969 142.503906 56.632812 C 142.769531 57.058594 143.050781 57.476562 143.339844 57.886719 C 144.503906 59.527344 145.839844 61.046875 147.3125 62.421875 C 150.257812 65.175781 153.71875 67.359375 157.382812 69.058594 C 161.058594 70.757812 164.953125 71.960938 168.910156 72.851562 L 168.871094 72.84375 C 171.972656 73.261719 175.097656 73.492188 178.214844 73.421875 C 179.773438 73.398438 181.328125 73.273438 182.875 73.097656 C 184.417969 72.910156 185.949219 72.632812 187.460938 72.277344 C 188.96875 71.921875 190.449219 71.445312 191.890625 70.890625 C 193.335938 70.332031 194.738281 69.679688 196.074219 68.90625 C 198.75 67.363281 201.175781 65.398438 203.183594 63.066406 Z M 204.132812 63.890625 C 202.015625 66.320312 199.460938 68.355469 196.664062 69.933594 C 195.269531 70.730469 193.804688 71.398438 192.308594 71.96875 C 190.808594 72.53125 189.277344 73.011719 187.71875 73.367188 C 186.160156 73.722656 184.585938 73.996094 183 74.175781 C 181.414062 74.34375 179.824219 74.460938 178.230469 74.472656 C 175.046875 74.523438 171.871094 74.261719 168.730469 73.824219 L 168.710938 73.820312 L 168.695312 73.816406 C 164.683594 72.898438 160.726562 71.660156 156.984375 69.910156 C 153.25 68.160156 149.714844 65.914062 146.699219 63.070312 C 145.191406 61.648438 143.820312 60.078125 142.628906 58.382812 C 142.332031 57.957031 142.046875 57.523438 141.769531 57.085938 C 141.632812 56.867188 141.5 56.644531 141.367188 56.421875 C 141.238281 56.195312 141.125 55.964844 141 55.734375 L 140.269531 54.363281 C 140.050781 53.890625 139.847656 53.414062 139.636719 52.941406 L 139.316406 52.230469 C 139.214844 51.992188 139.136719 51.742188 139.046875 51.5 L 138.523438 50.03125 C 138.375 49.535156 138.25 49.027344 138.113281 48.527344 L 137.910156 47.773438 C 137.84375 47.519531 137.8125 47.261719 137.765625 47.007812 C 137.671875 46.496094 137.582031 45.980469 137.5 45.46875 C 137.425781 44.953125 137.398438 44.433594 137.347656 43.914062 C 137.226562 42.878906 137.253906 41.839844 137.230469 40.800781 L 137.226562 40.414062 L 137.246094 40.023438 L 137.289062 39.246094 C 137.320312 38.730469 137.328125 38.210938 137.382812 37.695312 L 137.5625 36.152344 L 137.652344 35.378906 C 137.691406 35.125 137.742188 34.871094 137.785156 34.613281 L 138.058594 33.085938 L 138.128906 32.703125 L 138.21875 32.328125 L 138.394531 31.570312 L 138.75 30.0625 L 139.183594 28.574219 C 140.351562 24.613281 141.949219 20.792969 143.816406 17.125 C 145.628906 13.398438 148.277344 9.980469 151.601562 7.425781 C 153.253906 6.144531 155.046875 5.035156 156.941406 4.148438 C 158.832031 3.257812 160.808594 2.5625 162.828125 2.039062 C 166.871094 1.007812 171.054688 0.675781 175.195312 0.855469 C 177.269531 0.949219 179.332031 1.171875 181.378906 1.511719 C 183.425781 1.867188 185.441406 2.34375 187.425781 2.945312 C 191.390625 4.15625 195.234375 5.828125 198.71875 8.125 C 200.457031 9.273438 202.109375 10.5625 203.617188 12.011719 C 205.121094 13.464844 206.480469 15.074219 207.648438 16.816406 C 209.992188 20.300781 211.449219 24.363281 211.976562 28.511719 C 212.496094 32.605469 212.679688 36.738281 212.445312 40.863281 C 212.339844 42.929688 212.097656 44.988281 211.734375 47.027344 C 211.371094 49.066406 210.886719 51.089844 210.210938 53.054688 C 208.882812 56.988281 206.886719 60.738281 204.132812 63.890625 Z M 204.132812 63.890625 " fill-opacity="1" fill-rule="nonzero"/></g><path fill="#2b2b2b" d="M 205.0625 52.335938 C 203.703125 59.789062 199.699219 66.113281 194.144531 70.570312 C 187.460938 73.683594 178.953125 74.773438 168.800781 73.332031 C 158.792969 71.105469 151.21875 67.089844 146.058594 61.820312 C 142.4375 55.695312 140.917969 48.367188 142.277344 40.914062 C 145.34375 24.101562 161.882812 13.03125 179.222656 16.183594 C 196.558594 19.339844 208.128906 35.523438 205.0625 52.335938 Z M 205.0625 52.335938 " fill-opacity="1" fill-rule="nonzero"/><path fill="#f6f4f1" d="M 146.644531 46.621094 C 145.640625 46.695312 146.679688 54.5625 151.472656 60.660156 C 156.878906 67.542969 166.382812 69.457031 166.730469 68.210938 C 167.234375 66.398438 160.328125 66.148438 154.109375 60.097656 C 148.820312 54.953125 147.75 46.539062 146.644531 46.621094 Z M 146.644531 46.621094 " fill-opacity="1" fill-rule="nonzero"/><path fill="#f6f4f1" d="M 201.054688 41.730469 C 201.769531 41.589844 201.742188 38.652344 200.5625 35.625 C 199.316406 32.417969 196.46875 30.121094 195.882812 30.492188 C 195.46875 30.753906 196.113281 31.652344 197.714844 34.878906 C 199.96875 39.410156 200.402344 41.855469 201.054688 41.730469 Z M 201.054688 41.730469 " fill-opacity="1" fill-rule="nonzero"/><path fill="#f6f4f1" d="M 194.578125 28.179688 C 194.101562 27.226562 192.4375 27.082031 192.152344 27.519531 C 192 27.753906 192.246094 28.15625 192.351562 28.328125 C 192.882812 29.195312 194.164062 29.640625 194.578125 29.253906 C 194.824219 29.015625 194.738281 28.496094 194.578125 28.179688 Z M 194.578125 28.179688 " fill-opacity="1" fill-rule="nonzero"/></svg>